<?xml version="1.0" encoding="utf-8"?>
<!-- Generator: Adobe Illustrator 16.0.0, SVG Export Plug-In . SVG Version: 6.00 Build 0)  -->
<!DOCTYPE svg PUBLIC "-//W3C//DTD SVG 1.1//EN" "http://www.w3.org/Graphics/SVG/1.1/DTD/svg11.dtd">
<svg version="1.1" id="Layer_1" xmlns="http://www.w3.org/2000/svg" xmlns:xlink="http://www.w3.org/1999/xlink" x="0px" y="0px"
	 width="143.092px" height="143.043px" viewBox="0 0 143.092 143.043" enable-background="new 0 0 143.092 143.043"
	 xml:space="preserve">
<polygon points="71.708,13.784 81.105,0 86.615,15.747 99.26,4.864 100.508,21.5 115.539,14.262 112.438,30.654 128.828,27.553 
	121.59,42.584 138.227,43.831 127.346,56.476 143.092,61.986 129.307,71.383 143.092,80.781 127.346,86.293 138.227,98.938 
	121.59,100.184 128.828,115.215 112.438,112.113 115.539,128.506 100.508,121.268 99.26,137.904 86.615,127.021 81.105,142.768 
	71.708,128.984 62.31,142.768 56.8,127.021 44.155,137.904 42.908,121.268 27.877,128.506 30.979,112.113 14.586,115.215 
	21.825,100.184 5.188,98.938 16.071,86.293 0.324,80.781 14.108,71.383 0.324,61.986 16.071,56.476 5.188,43.831 21.825,42.584 
	14.586,27.553 30.979,30.654 27.877,14.262 42.908,21.5 44.155,4.864 56.8,15.747 62.31,0 "/>
</svg>
